<svg width="94" height="40" viewBox="0 0 94 40" fill="none" xmlns="http://www.w3.org/2000/svg">
<path d="M73.7572 0C70.6362 0.000865826 67.5589 0.734065 64.7728 2.14064C61.9867 3.54722 59.5695 5.58793 57.7156 8.09868C55.8601 5.59045 53.4423 3.55227 50.6563 2.14781C47.8704 0.743345 44.7939 0.0117385 41.674 0.0117385C38.554 0.0117385 35.4775 0.743345 32.6916 2.14781C29.9056 3.55227 27.4878 5.59045 25.6323 8.09868V0.744456H0V12.0001H5.1193V39.2553H25.6323V31.9353C27.4928 34.4376 29.9127 36.4701 32.6987 37.8704C35.4848 39.2707 38.5597 40 41.6778 40C44.796 40 47.8709 39.2707 50.657 37.8704C53.443 36.4701 55.8629 34.4376 57.7234 31.9353C59.5795 34.4412 61.998 36.4764 64.7842 37.877C67.5704 39.2777 70.6465 40.0048 73.765 39.9997C84.801 39.9997 93.7734 31.0538 93.7734 20.0178C93.7705 14.7099 91.6608 9.6202 87.9077 5.86681C84.1546 2.11342 79.0651 0.00330117 73.7572 0Z" fill="#0451DD"/>
<path d="M28.5688 14.0381L25.9211 18.1124H25.8386L23.2579 14.0381C22.8337 13.3916 22.4653 12.7101 22.1568 12.001H14.2637C14.2637 12.001 15.1171 12.3872 16.2447 13.7905L22.487 21.6073V26.2593C22.487 27.5053 21.9917 28.0473 21.9917 28.0473H29.7789C29.7789 28.0473 29.3116 27.4975 29.3116 26.2593V21.6073L35.6146 13.736C36.7702 12.3343 37.5957 12.001 37.5957 12.001H29.6683C29.6683 12.001 29.4222 12.7999 28.5688 14.0381Z" fill="white"/>
<path d="M77.7257 15.2755C78.9639 15.2755 79.6523 15.7427 79.6523 15.7427V12.0049H62.6155C62.6155 12.0049 63.1107 12.5282 63.1107 13.7663V26.2632C63.1107 27.5092 62.6155 28.0247 62.6155 28.0247H70.4307C70.4307 28.0247 69.9635 27.5014 69.9635 26.2632V22.4039H76.1839C76.8934 22.4072 77.5983 22.5191 78.274 22.7356V18.9121C77.5984 19.0768 76.9056 19.1599 76.2103 19.1597H69.9635V15.2755H77.7257Z" fill="white"/>
<path d="M53.2307 12.001H40.2946C40.2946 12.001 40.7338 12.5523 40.7338 13.7624V26.2593C40.7338 27.524 40.2946 28.0473 40.2946 28.0473H48.06C48.06 28.0473 47.5928 27.4975 47.5928 26.2593V22.4047H53.2307C56.8128 22.4047 59.4776 20.5607 59.4776 17.2028C59.4776 13.8185 56.9452 12.001 53.2307 12.001ZM49.8168 19.4331H47.6146V15.0022H49.8449C51.3867 15.0022 52.6794 15.6064 52.6794 17.2028C52.6794 18.8272 51.3587 19.4331 49.8168 19.4331Z" fill="white"/>
</svg>
